M48
; DRILL file {KiCad 8.0.8} date 2025-01-25T13:46:27+0530
; FORMAT={-:-/ absolute / inch / decimal}
; #@! TF.CreationDate,2025-01-25T13:46:27+05:30
; #@! TF.GenerationSoftware,Kicad,Pcbnew,8.0.8
; #@! TF.FileFunction,Plated,1,2,PTH
FMAT,2
INCH
; #@! TA.AperFunction,Plated,PTH,ComponentDrill
T1C0.0276
; #@! TA.AperFunction,Plated,PTH,ComponentDrill
T2C0.0354
; #@! TA.AperFunction,Plated,PTH,ComponentDrill
T3C0.0394
; #@! TA.AperFunction,Plated,PTH,ComponentDrill
T4C0.0984
%
G90
G05
T1
X5.9055Y-3.0299
X5.9055Y-3.2299
X6.0236Y-3.0299
X6.0236Y-3.2299
X6.1417Y-3.0299
X6.1417Y-3.2299
T2
X5.9539Y-2.3425
X5.9539Y-2.5787
X5.9539Y-2.815
X6.0539Y-2.3425
X6.0539Y-2.5787
X6.0539Y-2.815
T3
X5.8646Y-3.5433
X5.9646Y-3.5433
X6.0646Y-3.5433
X6.1646Y-3.5433
T4
X5.5709Y-2.3228
X5.5709Y-3.1299
X6.378Y-2.3228
X6.3976Y-3.1496
M30
