%TF.GenerationSoftware,KiCad,Pcbnew,8.0.8*%
%TF.CreationDate,2025-01-25T13:46:24+05:30*%
%TF.ProjectId,Traffic Light,54726166-6669-4632-904c-696768742e6b,rev?*%
%TF.SameCoordinates,Original*%
%TF.FileFunction,Legend,Bot*%
%TF.FilePolarity,Positive*%
%FSLAX46Y46*%
G04 Gerber Fmt 4.6, Leading zero omitted, Abs format (unit mm)*
G04 Created by KiCad (PCBNEW 8.0.8) date 2025-01-25 13:46:24*
%MOMM*%
%LPD*%
G01*
G04 APERTURE LIST*
%ADD10C,0.150000*%
%ADD11C,0.120000*%
G04 APERTURE END LIST*
D10*
X146144819Y-94051666D02*
X146859104Y-94051666D01*
X146859104Y-94051666D02*
X147001961Y-94004047D01*
X147001961Y-94004047D02*
X147097200Y-93908809D01*
X147097200Y-93908809D02*
X147144819Y-93765952D01*
X147144819Y-93765952D02*
X147144819Y-93670714D01*
X147144819Y-95051666D02*
X147144819Y-94480238D01*
X147144819Y-94765952D02*
X146144819Y-94765952D01*
X146144819Y-94765952D02*
X146287676Y-94670714D01*
X146287676Y-94670714D02*
X146382914Y-94575476D01*
X146382914Y-94575476D02*
X146430533Y-94480238D01*
D11*
%TO.C,J1*%
X147690000Y-90000000D02*
X147690000Y-88730000D01*
X147690000Y-88730000D02*
X148960000Y-88730000D01*
X151120000Y-91440000D02*
X151120000Y-91042929D01*
X151880000Y-91440000D02*
X151880000Y-91042929D01*
X153660000Y-91440000D02*
X153660000Y-91042929D01*
X154420000Y-91440000D02*
X154420000Y-91042929D01*
X156200000Y-91440000D02*
X156200000Y-91042929D01*
X156960000Y-91440000D02*
X156960000Y-91042929D01*
X148580000Y-91440000D02*
X148580000Y-91110000D01*
X149340000Y-91440000D02*
X149340000Y-91110000D01*
X157910000Y-91440000D02*
X147630000Y-91440000D01*
X150230000Y-94100000D02*
X150230000Y-91440000D01*
X152770000Y-94100000D02*
X152770000Y-91440000D01*
X155310000Y-94100000D02*
X155310000Y-91440000D01*
X157910000Y-94100000D02*
X157910000Y-91440000D01*
X147630000Y-91440000D02*
X147630000Y-94100000D01*
X148580000Y-100100000D02*
X148580000Y-94100000D01*
X148640000Y-100100000D02*
X148640000Y-94100000D01*
X148760000Y-100100000D02*
X148760000Y-94100000D01*
X148880000Y-100100000D02*
X148880000Y-94100000D01*
X149000000Y-100100000D02*
X149000000Y-94100000D01*
X149120000Y-100100000D02*
X149120000Y-94100000D01*
X149240000Y-100100000D02*
X149240000Y-94100000D01*
X151120000Y-100100000D02*
X151120000Y-94100000D01*
X153660000Y-100100000D02*
X153660000Y-94100000D01*
X156200000Y-100100000D02*
X156200000Y-94100000D01*
X147630000Y-94100000D02*
X157910000Y-94100000D01*
X149340000Y-100100000D02*
X148580000Y-100100000D01*
X149340000Y-94100000D02*
X149340000Y-100100000D01*
X151880000Y-100100000D02*
X151120000Y-100100000D01*
X151880000Y-94100000D02*
X151880000Y-100100000D01*
X154420000Y-100100000D02*
X153660000Y-100100000D01*
X154420000Y-94100000D02*
X154420000Y-100100000D01*
X156960000Y-100100000D02*
X156200000Y-100100000D01*
X156960000Y-94100000D02*
X156960000Y-100100000D01*
%TD*%
M02*
