%TF.GenerationSoftware,KiCad,Pcbnew,8.0.8*%
%TF.CreationDate,2025-01-25T13:46:23+05:30*%
%TF.ProjectId,Traffic Light,54726166-6669-4632-904c-696768742e6b,rev?*%
%TF.SameCoordinates,Original*%
%TF.FileFunction,Copper,L1,Top*%
%TF.FilePolarity,Positive*%
%FSLAX46Y46*%
G04 Gerber Fmt 4.6, Leading zero omitted, Abs format (unit mm)*
G04 Created by KiCad (PCBNEW 8.0.8) date 2025-01-25 13:46:23*
%MOMM*%
%LPD*%
G01*
G04 APERTURE LIST*
%TA.AperFunction,ComponentPad*%
%ADD10O,1.400000X1.400000*%
%TD*%
%TA.AperFunction,ComponentPad*%
%ADD11C,1.400000*%
%TD*%
%TA.AperFunction,ComponentPad*%
%ADD12R,1.700000X1.700000*%
%TD*%
%TA.AperFunction,ComponentPad*%
%ADD13O,1.700000X1.700000*%
%TD*%
%TA.AperFunction,ComponentPad*%
%ADD14C,5.000000*%
%TD*%
%TA.AperFunction,ComponentPad*%
%ADD15R,1.800000X1.800000*%
%TD*%
%TA.AperFunction,ComponentPad*%
%ADD16C,1.800000*%
%TD*%
%TA.AperFunction,Conductor*%
%ADD17C,0.200000*%
%TD*%
G04 APERTURE END LIST*
D10*
%TO.P,R3,2*%
%TO.N,Net-(D3-A)*%
X156000000Y-76960000D03*
D11*
%TO.P,R3,1*%
%TO.N,Net-(J1-Pin_4)*%
X156000000Y-82040000D03*
%TD*%
D10*
%TO.P,R2,2*%
%TO.N,Net-(D2-A)*%
X153000000Y-76960000D03*
D11*
%TO.P,R2,1*%
%TO.N,Net-(J1-Pin_3)*%
X153000000Y-82040000D03*
%TD*%
%TO.P,R1,1*%
%TO.N,Net-(J1-Pin_2)*%
X150000000Y-82040000D03*
D10*
%TO.P,R1,2*%
%TO.N,Net-(D1-A)*%
X150000000Y-76960000D03*
%TD*%
D12*
%TO.P,J1,1,Pin_1*%
%TO.N,Net-(D1-K)*%
X148960000Y-90000000D03*
D13*
%TO.P,J1,2,Pin_2*%
%TO.N,Net-(J1-Pin_2)*%
X151500000Y-90000000D03*
%TO.P,J1,3,Pin_3*%
%TO.N,Net-(J1-Pin_3)*%
X154040000Y-90000000D03*
%TO.P,J1,4,Pin_4*%
%TO.N,Net-(J1-Pin_4)*%
X156580000Y-90000000D03*
%TD*%
D14*
%TO.P,H4,1*%
%TO.N,N/C*%
X162500000Y-80000000D03*
%TD*%
%TO.P,H3,1*%
%TO.N,N/C*%
X141500000Y-59000000D03*
%TD*%
%TO.P,H2,1*%
%TO.N,N/C*%
X162000000Y-59000000D03*
%TD*%
%TO.P,H1,1*%
%TO.N,N/C*%
X141500000Y-79500000D03*
%TD*%
D15*
%TO.P,D3,1,K*%
%TO.N,Net-(D1-K)*%
X153770000Y-71500000D03*
D16*
%TO.P,D3,2,A*%
%TO.N,Net-(D3-A)*%
X151230000Y-71500000D03*
%TD*%
D15*
%TO.P,D2,1,K*%
%TO.N,Net-(D1-K)*%
X153770000Y-65500000D03*
D16*
%TO.P,D2,2,A*%
%TO.N,Net-(D2-A)*%
X151230000Y-65500000D03*
%TD*%
D15*
%TO.P,D1,1,K*%
%TO.N,Net-(D1-K)*%
X153770000Y-59500000D03*
D16*
%TO.P,D1,2,A*%
%TO.N,Net-(D1-A)*%
X151230000Y-59500000D03*
%TD*%
D17*
%TO.N,Net-(J1-Pin_4)*%
X156000000Y-89420000D02*
X156580000Y-90000000D01*
X156000000Y-82040000D02*
X156000000Y-89420000D01*
%TO.N,Net-(J1-Pin_3)*%
X153126346Y-90000000D02*
X154040000Y-90000000D01*
X152563173Y-89436827D02*
X153126346Y-90000000D01*
X153000000Y-89000000D02*
X152563173Y-89436827D01*
X153000000Y-82040000D02*
X153000000Y-89000000D01*
%TO.N,Net-(J1-Pin_2)*%
X150500000Y-89000000D02*
X151500000Y-90000000D01*
X150110000Y-89000000D02*
X150500000Y-89000000D01*
X150000000Y-88890000D02*
X150110000Y-89000000D01*
%TO.N,Net-(D1-K)*%
X148960000Y-89460000D02*
X148960000Y-90000000D01*
X148000000Y-88500000D02*
X148960000Y-89460000D01*
X148500000Y-61000000D02*
X148500000Y-88000000D01*
X149500000Y-60000000D02*
X148500000Y-61000000D01*
X149500000Y-56500000D02*
X149500000Y-60000000D01*
X153000000Y-56500000D02*
X149500000Y-56500000D01*
X153770000Y-57270000D02*
X153000000Y-56500000D01*
X148500000Y-88000000D02*
X148000000Y-88500000D01*
X153770000Y-59500000D02*
X153770000Y-57270000D01*
%TO.N,Net-(D1-A)*%
X149630000Y-76590000D02*
X150000000Y-76960000D01*
X149630000Y-61100000D02*
X149630000Y-76590000D01*
X151230000Y-59500000D02*
X149630000Y-61100000D01*
%TO.N,Net-(D2-A)*%
X150030000Y-66700000D02*
X150030000Y-73990000D01*
X151230000Y-65500000D02*
X150030000Y-66700000D01*
X150030000Y-73990000D02*
X153000000Y-76960000D01*
%TO.N,Net-(D3-A)*%
X156000000Y-76270000D02*
X156000000Y-76960000D01*
X151230000Y-71500000D02*
X156000000Y-76270000D01*
%TO.N,Net-(J1-Pin_2)*%
X150000000Y-82040000D02*
X150000000Y-88890000D01*
%TD*%
M02*
