%TF.GenerationSoftware,KiCad,Pcbnew,8.0.8*%
%TF.CreationDate,2025-01-25T13:46:24+05:30*%
%TF.ProjectId,Traffic Light,54726166-6669-4632-904c-696768742e6b,rev?*%
%TF.SameCoordinates,Original*%
%TF.FileFunction,Profile,NP*%
%FSLAX46Y46*%
G04 Gerber Fmt 4.6, Leading zero omitted, Abs format (unit mm)*
G04 Created by KiCad (PCBNEW 8.0.8) date 2025-01-25 13:46:24*
%MOMM*%
%LPD*%
G01*
G04 APERTURE LIST*
%ADD10C,0.150000*%
%TA.AperFunction,Profile*%
%ADD11C,0.050000*%
%TD*%
G04 APERTURE END LIST*
D10*
X147860588Y-86917438D02*
X147765350Y-86869819D01*
X147765350Y-86869819D02*
X147622493Y-86869819D01*
X147622493Y-86869819D02*
X147479636Y-86917438D01*
X147479636Y-86917438D02*
X147384398Y-87012676D01*
X147384398Y-87012676D02*
X147336779Y-87107914D01*
X147336779Y-87107914D02*
X147289160Y-87298390D01*
X147289160Y-87298390D02*
X147289160Y-87441247D01*
X147289160Y-87441247D02*
X147336779Y-87631723D01*
X147336779Y-87631723D02*
X147384398Y-87726961D01*
X147384398Y-87726961D02*
X147479636Y-87822200D01*
X147479636Y-87822200D02*
X147622493Y-87869819D01*
X147622493Y-87869819D02*
X147717731Y-87869819D01*
X147717731Y-87869819D02*
X147860588Y-87822200D01*
X147860588Y-87822200D02*
X147908207Y-87774580D01*
X147908207Y-87774580D02*
X147908207Y-87441247D01*
X147908207Y-87441247D02*
X147717731Y-87441247D01*
X148336779Y-87869819D02*
X148336779Y-86869819D01*
X148336779Y-86869819D02*
X148908207Y-87869819D01*
X148908207Y-87869819D02*
X148908207Y-86869819D01*
X149384398Y-87869819D02*
X149384398Y-86869819D01*
X149384398Y-86869819D02*
X149622493Y-86869819D01*
X149622493Y-86869819D02*
X149765350Y-86917438D01*
X149765350Y-86917438D02*
X149860588Y-87012676D01*
X149860588Y-87012676D02*
X149908207Y-87107914D01*
X149908207Y-87107914D02*
X149955826Y-87298390D01*
X149955826Y-87298390D02*
X149955826Y-87441247D01*
X149955826Y-87441247D02*
X149908207Y-87631723D01*
X149908207Y-87631723D02*
X149860588Y-87726961D01*
X149860588Y-87726961D02*
X149765350Y-87822200D01*
X149765350Y-87822200D02*
X149622493Y-87869819D01*
X149622493Y-87869819D02*
X149384398Y-87869819D01*
D11*
X135500000Y-93000000D02*
X135500000Y-90000000D01*
X137000000Y-93000000D02*
X135500000Y-93000000D01*
X166000000Y-90000000D02*
X166000000Y-93000000D01*
X135500000Y-55500000D02*
X136500000Y-55500000D01*
X135500000Y-57000000D02*
X135500000Y-55500000D01*
X135500000Y-90000000D02*
X135500000Y-57000000D01*
X138000000Y-55500000D02*
X136500000Y-55500000D01*
X166000000Y-55500000D02*
X138000000Y-55500000D01*
X166000000Y-90000000D02*
X166000000Y-55500000D01*
X137000000Y-93000000D02*
X166000000Y-93000000D01*
M02*
