%TF.GenerationSoftware,KiCad,Pcbnew,8.0.8*%
%TF.CreationDate,2025-01-25T13:46:24+05:30*%
%TF.ProjectId,Traffic Light,54726166-6669-4632-904c-696768742e6b,rev?*%
%TF.SameCoordinates,Original*%
%TF.FileFunction,Legend,Top*%
%TF.FilePolarity,Positive*%
%FSLAX46Y46*%
G04 Gerber Fmt 4.6, Leading zero omitted, Abs format (unit mm)*
G04 Created by KiCad (PCBNEW 8.0.8) date 2025-01-25 13:46:24*
%MOMM*%
%LPD*%
G01*
G04 APERTURE LIST*
%ADD10C,0.150000*%
%ADD11C,0.120000*%
G04 APERTURE END LIST*
D10*
X156454819Y-84166666D02*
X155978628Y-84499999D01*
X156454819Y-84738094D02*
X155454819Y-84738094D01*
X155454819Y-84738094D02*
X155454819Y-84357142D01*
X155454819Y-84357142D02*
X155502438Y-84261904D01*
X155502438Y-84261904D02*
X155550057Y-84214285D01*
X155550057Y-84214285D02*
X155645295Y-84166666D01*
X155645295Y-84166666D02*
X155788152Y-84166666D01*
X155788152Y-84166666D02*
X155883390Y-84214285D01*
X155883390Y-84214285D02*
X155931009Y-84261904D01*
X155931009Y-84261904D02*
X155978628Y-84357142D01*
X155978628Y-84357142D02*
X155978628Y-84738094D01*
X155454819Y-83833332D02*
X155454819Y-83214285D01*
X155454819Y-83214285D02*
X155835771Y-83547618D01*
X155835771Y-83547618D02*
X155835771Y-83404761D01*
X155835771Y-83404761D02*
X155883390Y-83309523D01*
X155883390Y-83309523D02*
X155931009Y-83261904D01*
X155931009Y-83261904D02*
X156026247Y-83214285D01*
X156026247Y-83214285D02*
X156264342Y-83214285D01*
X156264342Y-83214285D02*
X156359580Y-83261904D01*
X156359580Y-83261904D02*
X156407200Y-83309523D01*
X156407200Y-83309523D02*
X156454819Y-83404761D01*
X156454819Y-83404761D02*
X156454819Y-83690475D01*
X156454819Y-83690475D02*
X156407200Y-83785713D01*
X156407200Y-83785713D02*
X156359580Y-83833332D01*
X153454819Y-84166666D02*
X152978628Y-84499999D01*
X153454819Y-84738094D02*
X152454819Y-84738094D01*
X152454819Y-84738094D02*
X152454819Y-84357142D01*
X152454819Y-84357142D02*
X152502438Y-84261904D01*
X152502438Y-84261904D02*
X152550057Y-84214285D01*
X152550057Y-84214285D02*
X152645295Y-84166666D01*
X152645295Y-84166666D02*
X152788152Y-84166666D01*
X152788152Y-84166666D02*
X152883390Y-84214285D01*
X152883390Y-84214285D02*
X152931009Y-84261904D01*
X152931009Y-84261904D02*
X152978628Y-84357142D01*
X152978628Y-84357142D02*
X152978628Y-84738094D01*
X152550057Y-83785713D02*
X152502438Y-83738094D01*
X152502438Y-83738094D02*
X152454819Y-83642856D01*
X152454819Y-83642856D02*
X152454819Y-83404761D01*
X152454819Y-83404761D02*
X152502438Y-83309523D01*
X152502438Y-83309523D02*
X152550057Y-83261904D01*
X152550057Y-83261904D02*
X152645295Y-83214285D01*
X152645295Y-83214285D02*
X152740533Y-83214285D01*
X152740533Y-83214285D02*
X152883390Y-83261904D01*
X152883390Y-83261904D02*
X153454819Y-83833332D01*
X153454819Y-83833332D02*
X153454819Y-83214285D01*
X150454819Y-84166666D02*
X149978628Y-84499999D01*
X150454819Y-84738094D02*
X149454819Y-84738094D01*
X149454819Y-84738094D02*
X149454819Y-84357142D01*
X149454819Y-84357142D02*
X149502438Y-84261904D01*
X149502438Y-84261904D02*
X149550057Y-84214285D01*
X149550057Y-84214285D02*
X149645295Y-84166666D01*
X149645295Y-84166666D02*
X149788152Y-84166666D01*
X149788152Y-84166666D02*
X149883390Y-84214285D01*
X149883390Y-84214285D02*
X149931009Y-84261904D01*
X149931009Y-84261904D02*
X149978628Y-84357142D01*
X149978628Y-84357142D02*
X149978628Y-84738094D01*
X150454819Y-83214285D02*
X150454819Y-83785713D01*
X150454819Y-83499999D02*
X149454819Y-83499999D01*
X149454819Y-83499999D02*
X149597676Y-83595237D01*
X149597676Y-83595237D02*
X149692914Y-83690475D01*
X149692914Y-83690475D02*
X149740533Y-83785713D01*
X161738095Y-76954819D02*
X161738095Y-75954819D01*
X161738095Y-76431009D02*
X162309523Y-76431009D01*
X162309523Y-76954819D02*
X162309523Y-75954819D01*
X163214285Y-76288152D02*
X163214285Y-76954819D01*
X162976190Y-75907200D02*
X162738095Y-76621485D01*
X162738095Y-76621485D02*
X163357142Y-76621485D01*
X140738095Y-55954819D02*
X140738095Y-54954819D01*
X140738095Y-55431009D02*
X141309523Y-55431009D01*
X141309523Y-55954819D02*
X141309523Y-54954819D01*
X141690476Y-54954819D02*
X142309523Y-54954819D01*
X142309523Y-54954819D02*
X141976190Y-55335771D01*
X141976190Y-55335771D02*
X142119047Y-55335771D01*
X142119047Y-55335771D02*
X142214285Y-55383390D01*
X142214285Y-55383390D02*
X142261904Y-55431009D01*
X142261904Y-55431009D02*
X142309523Y-55526247D01*
X142309523Y-55526247D02*
X142309523Y-55764342D01*
X142309523Y-55764342D02*
X142261904Y-55859580D01*
X142261904Y-55859580D02*
X142214285Y-55907200D01*
X142214285Y-55907200D02*
X142119047Y-55954819D01*
X142119047Y-55954819D02*
X141833333Y-55954819D01*
X141833333Y-55954819D02*
X141738095Y-55907200D01*
X141738095Y-55907200D02*
X141690476Y-55859580D01*
X161238095Y-55954819D02*
X161238095Y-54954819D01*
X161238095Y-55431009D02*
X161809523Y-55431009D01*
X161809523Y-55954819D02*
X161809523Y-54954819D01*
X162238095Y-55050057D02*
X162285714Y-55002438D01*
X162285714Y-55002438D02*
X162380952Y-54954819D01*
X162380952Y-54954819D02*
X162619047Y-54954819D01*
X162619047Y-54954819D02*
X162714285Y-55002438D01*
X162714285Y-55002438D02*
X162761904Y-55050057D01*
X162761904Y-55050057D02*
X162809523Y-55145295D01*
X162809523Y-55145295D02*
X162809523Y-55240533D01*
X162809523Y-55240533D02*
X162761904Y-55383390D01*
X162761904Y-55383390D02*
X162190476Y-55954819D01*
X162190476Y-55954819D02*
X162809523Y-55954819D01*
X140738095Y-76454819D02*
X140738095Y-75454819D01*
X140738095Y-75931009D02*
X141309523Y-75931009D01*
X141309523Y-76454819D02*
X141309523Y-75454819D01*
X142309523Y-76454819D02*
X141738095Y-76454819D01*
X142023809Y-76454819D02*
X142023809Y-75454819D01*
X142023809Y-75454819D02*
X141928571Y-75597676D01*
X141928571Y-75597676D02*
X141833333Y-75692914D01*
X141833333Y-75692914D02*
X141738095Y-75740533D01*
X155261905Y-71954819D02*
X155261905Y-70954819D01*
X155261905Y-70954819D02*
X155500000Y-70954819D01*
X155500000Y-70954819D02*
X155642857Y-71002438D01*
X155642857Y-71002438D02*
X155738095Y-71097676D01*
X155738095Y-71097676D02*
X155785714Y-71192914D01*
X155785714Y-71192914D02*
X155833333Y-71383390D01*
X155833333Y-71383390D02*
X155833333Y-71526247D01*
X155833333Y-71526247D02*
X155785714Y-71716723D01*
X155785714Y-71716723D02*
X155738095Y-71811961D01*
X155738095Y-71811961D02*
X155642857Y-71907200D01*
X155642857Y-71907200D02*
X155500000Y-71954819D01*
X155500000Y-71954819D02*
X155261905Y-71954819D01*
X156166667Y-70954819D02*
X156785714Y-70954819D01*
X156785714Y-70954819D02*
X156452381Y-71335771D01*
X156452381Y-71335771D02*
X156595238Y-71335771D01*
X156595238Y-71335771D02*
X156690476Y-71383390D01*
X156690476Y-71383390D02*
X156738095Y-71431009D01*
X156738095Y-71431009D02*
X156785714Y-71526247D01*
X156785714Y-71526247D02*
X156785714Y-71764342D01*
X156785714Y-71764342D02*
X156738095Y-71859580D01*
X156738095Y-71859580D02*
X156690476Y-71907200D01*
X156690476Y-71907200D02*
X156595238Y-71954819D01*
X156595238Y-71954819D02*
X156309524Y-71954819D01*
X156309524Y-71954819D02*
X156214286Y-71907200D01*
X156214286Y-71907200D02*
X156166667Y-71859580D01*
X155261905Y-65954819D02*
X155261905Y-64954819D01*
X155261905Y-64954819D02*
X155500000Y-64954819D01*
X155500000Y-64954819D02*
X155642857Y-65002438D01*
X155642857Y-65002438D02*
X155738095Y-65097676D01*
X155738095Y-65097676D02*
X155785714Y-65192914D01*
X155785714Y-65192914D02*
X155833333Y-65383390D01*
X155833333Y-65383390D02*
X155833333Y-65526247D01*
X155833333Y-65526247D02*
X155785714Y-65716723D01*
X155785714Y-65716723D02*
X155738095Y-65811961D01*
X155738095Y-65811961D02*
X155642857Y-65907200D01*
X155642857Y-65907200D02*
X155500000Y-65954819D01*
X155500000Y-65954819D02*
X155261905Y-65954819D01*
X156214286Y-65050057D02*
X156261905Y-65002438D01*
X156261905Y-65002438D02*
X156357143Y-64954819D01*
X156357143Y-64954819D02*
X156595238Y-64954819D01*
X156595238Y-64954819D02*
X156690476Y-65002438D01*
X156690476Y-65002438D02*
X156738095Y-65050057D01*
X156738095Y-65050057D02*
X156785714Y-65145295D01*
X156785714Y-65145295D02*
X156785714Y-65240533D01*
X156785714Y-65240533D02*
X156738095Y-65383390D01*
X156738095Y-65383390D02*
X156166667Y-65954819D01*
X156166667Y-65954819D02*
X156785714Y-65954819D01*
X155261905Y-59954819D02*
X155261905Y-58954819D01*
X155261905Y-58954819D02*
X155500000Y-58954819D01*
X155500000Y-58954819D02*
X155642857Y-59002438D01*
X155642857Y-59002438D02*
X155738095Y-59097676D01*
X155738095Y-59097676D02*
X155785714Y-59192914D01*
X155785714Y-59192914D02*
X155833333Y-59383390D01*
X155833333Y-59383390D02*
X155833333Y-59526247D01*
X155833333Y-59526247D02*
X155785714Y-59716723D01*
X155785714Y-59716723D02*
X155738095Y-59811961D01*
X155738095Y-59811961D02*
X155642857Y-59907200D01*
X155642857Y-59907200D02*
X155500000Y-59954819D01*
X155500000Y-59954819D02*
X155261905Y-59954819D01*
X156785714Y-59954819D02*
X156214286Y-59954819D01*
X156500000Y-59954819D02*
X156500000Y-58954819D01*
X156500000Y-58954819D02*
X156404762Y-59097676D01*
X156404762Y-59097676D02*
X156309524Y-59192914D01*
X156309524Y-59192914D02*
X156214286Y-59240533D01*
D11*
%TO.C,R3*%
X156920000Y-81420000D02*
X156920000Y-77580000D01*
X155080000Y-81420000D02*
X155080000Y-77580000D01*
%TO.C,R2*%
X153920000Y-81420000D02*
X153920000Y-77580000D01*
X152080000Y-81420000D02*
X152080000Y-77580000D01*
%TO.C,R1*%
X149080000Y-81420000D02*
X149080000Y-77580000D01*
X150920000Y-81420000D02*
X150920000Y-77580000D01*
%TO.C,D3*%
X154060000Y-72736000D02*
X154060000Y-72580000D01*
X154060000Y-70420000D02*
X154060000Y-70264000D01*
X154060000Y-72735516D02*
G75*
G02*
X150828603Y-72580061I-1560000J1235516D01*
G01*
X153540961Y-72580000D02*
G75*
G02*
X151459090Y-72580049I-1040961J1080000D01*
G01*
X151459090Y-70419951D02*
G75*
G02*
X153540961Y-70420000I1040910J-1080049D01*
G01*
X150828603Y-70419939D02*
G75*
G02*
X154060000Y-70264484I1671397J-1080061D01*
G01*
%TO.C,D2*%
X154060000Y-66736000D02*
X154060000Y-66580000D01*
X154060000Y-64420000D02*
X154060000Y-64264000D01*
X154060000Y-66735516D02*
G75*
G02*
X150828603Y-66580061I-1560000J1235516D01*
G01*
X153540961Y-66580000D02*
G75*
G02*
X151459090Y-66580049I-1040961J1080000D01*
G01*
X151459090Y-64419951D02*
G75*
G02*
X153540961Y-64420000I1040910J-1080049D01*
G01*
X150828603Y-64419939D02*
G75*
G02*
X154060000Y-64264484I1671397J-1080061D01*
G01*
%TO.C,D1*%
X154060000Y-60736000D02*
X154060000Y-60580000D01*
X154060000Y-58420000D02*
X154060000Y-58264000D01*
X154060000Y-60735516D02*
G75*
G02*
X150828603Y-60580061I-1560000J1235516D01*
G01*
X153540961Y-60580000D02*
G75*
G02*
X151459090Y-60580049I-1040961J1080000D01*
G01*
X151459090Y-58419951D02*
G75*
G02*
X153540961Y-58420000I1040910J-1080049D01*
G01*
X150828603Y-58419939D02*
G75*
G02*
X154060000Y-58264484I1671397J-1080061D01*
G01*
%TD*%
M02*
